<svg xmlns="http://www.w3.org/2000/svg" viewBox="0 0 240 60" width="240" height="60">
  <defs>
    <linearGradient id="logoGradient" x1="0%" y1="0%" x2="100%" y2="0%">
      <stop offset="0%" stop-color="#4F46E5" />
      <stop offset="50%" stop-color="#8B5CF6" />
      <stop offset="100%" stop-color="#F72585" />
    </linearGradient>
  </defs>
  <g fill="url(#logoGradient)">
    <path d="M20,10 L20,50 L40,50 L40,40 L30,40 L30,20 L40,20 L40,10 L20,10 Z" />
    <path d="M50,10 L50,50 L70,50 L70,40 L60,40 L60,35 L70,35 L70,25 L60,25 L60,20 L70,20 L70,10 L50,10 Z" />
    <path d="M80,10 L80,50 L90,50 L90,35 L100,50 L112,50 L100,32 L112,10 L100,10 L90,25 L90,10 L80,10 Z" />
    <path d="M120,10 L120,50 L140,50 L140,40 L130,40 L130,10 L120,10 Z" />
    <path d="M150,10 L150,50 L160,50 L160,35 L170,35 L170,50 L180,50 L180,10 L170,10 L170,25 L160,25 L160,10 L150,10 Z" />
    <path d="M190,10 L190,20 L200,20 L200,50 L210,50 L210,20 L220,20 L220,10 L190,10 Z" />
  </g>
</svg>