<svg xmlns="http://www.w3.org/2000/svg" viewBox="0 0 240 60" width="240" height="60">
  <defs>
    <linearGradient id="logoGradient" x1="0%" y1="0%" x2="100%" y2="0%">
      <stop offset="0%" stop-color="#4F46E5" />
      <stop offset="50%" stop-color="#8B5CF6" />
      <stop offset="100%" stop-color="#F72585" />
    </linearGradient>
  </defs>
  <g fill="url(#logoGradient)">
    <!-- E -->
    <path d="M20,10 L20,50 L40,50 L40,40 L30,40 L30,35 L38,35 L38,25 L30,25 L30,20 L40,20 L40,10 L20,10 Z" />
    
    <!-- d -->
    <path d="M45,10 L45,50 L55,50 L55,35 C55,35 60,40 65,40 C70,40 75,35 75,25 C75,15 70,10 65,10 C60,10 55,15 55,15 L55,10 L45,10 Z M65,30 C63,30 60,28 60,25 C60,22 63,20 65,20 C67,20 70,22 70,25 C70,28 67,30 65,30 Z" />
    
    <!-- u -->
    <path d="M80,15 L80,50 L90,50 L90,25 C90,25 93,20 95,20 C97,20 100,22 100,25 L100,50 L110,50 L110,22 C110,14 105,10 100,10 C95,10 90,15 90,15 L90,15 L80,15 Z" />
    
    <!-- H -->
    <path d="M115,10 L115,50 L125,50 L125,35 L135,35 L135,50 L145,50 L145,10 L135,10 L135,25 L125,25 L125,10 L115,10 Z" />
    
    <!-- u -->
    <path d="M150,15 L150,50 L160,50 L160,25 C160,25 163,20 165,20 C167,20 170,22 170,25 L170,50 L180,50 L180,22 C180,14 175,10 170,10 C165,10 160,15 160,15 L160,15 L150,15 Z" />
    
    <!-- b -->
    <path d="M185,10 L185,50 L195,50 L195,35 C195,35 200,40 205,40 C210,40 215,35 215,25 C215,15 210,10 205,10 C200,10 195,15 195,15 L195,10 L185,10 Z M205,30 C203,30 200,28 200,25 C200,22 203,20 205,20 C207,20 210,22 210,25 C210,28 207,30 205,30 Z" />
  </g>
</svg>